<svg width="96" height="96" viewBox="0 0 96 96" xmlns="http://www.w3.org/2000/svg">
  <defs>
    <linearGradient id="fp-bubble-grad-small" x1="0%" y1="0%" x2="100%" y2="100%">
      <stop offset="0%" stop-color="#18E5FF"/>
      <stop offset="100%" stop-color="#006BFF"/>
    </linearGradient>
  </defs>

  <!-- Dark circle background -->
  <circle cx="48" cy="48" r="36" fill="#020617"/>

  <!-- Bubble scaled down -->
  <g transform="translate(26 26) scale(0.9)">
    <path d="M18 6
             h40
             a14 14 0 0 1 14 14
             v10
             a14 14 0 0 1 -14 14
             h-19
             l-7 9
             a3 3 0 0 1 -5 -1.9
             v-7.1
             h-9
             a12 12 0 0 1 -12 -12
             v-12
             a14 14 0 0 1 14 -14
             z"
          fill="#020617"
          stroke="url(#fp-bubble-grad-small)"
          stroke-width="2"/>

    <!-- Star -->
    <path d="M38 15
             l2.9 6.5
             7.1 0.6
             -5.4 4.4
             1.7 6.9
             -6.3 -3.7
             -6.3 3.7
             1.7 -6.9
             -5.4 -4.4
             7.1 -0.6
             z"
          fill="url(#fp-bubble-grad-small)"/>

    <!-- Search -->
    <circle cx="58" cy="32" r="6.5" fill="none" stroke="#E0F2FE" stroke-width="2"/>
    <rect x="61" y="36" width="9" height="2.6" rx="1.3"
          transform="rotate(35 61 36)"
          fill="#E0F2FE"/>
  </g>
</svg>
